<svg width="80" height="80" viewBox="0 0 80 80" fill="none" xmlns="http://www.w3.org/2000/svg">
<circle cx="40" cy="40" r="40" fill="black"/>
<path d="M61.4329 51.3451C61.4329 56.3576 57.3694 60.4211 52.3568 60.4211C47.3442 60.4211 43.2808 56.3576 43.2808 51.3451C43.2808 46.3325 47.3442 42.269 52.3568 42.269C57.3694 42.269 61.4329 46.3325 61.4329 51.3451Z" fill="#2563EB"/>
<path d="M18.5671 24.1169C18.5671 21.6106 20.5989 19.5789 23.1052 19.5789H32.1812C34.6875 19.5789 36.7192 21.6106 36.7192 24.1169V33.193C36.7192 35.6992 34.6875 37.731 32.1812 37.731H23.1052C20.5989 37.731 18.5671 35.6992 18.5671 33.193V24.1169Z" fill="#0D9488"/>
<path d="M27.6432 43.4853L36.7189 59.2049H18.5675L27.6432 43.4853Z" fill="#22D3EE"/>
<path d="M48.4551 22.2954C49.7954 18.6734 54.9182 18.6734 56.2584 22.2954C56.6798 23.4341 57.5776 24.3319 58.7164 24.7533C62.3383 26.0935 62.3383 31.2164 58.7164 32.5566C57.5776 32.978 56.6798 33.8758 56.2584 35.0145C54.9182 38.6365 49.7954 38.6365 48.4551 35.0145C48.0338 33.8758 47.1359 32.978 45.9972 32.5566C42.3752 31.2164 42.3752 26.0935 45.9972 24.7533C47.1359 24.3319 48.0338 23.4341 48.4551 22.2954Z" fill="#C084FC"/>
</svg>
